<svg width="18" height="18" viewBox="0 0 18 18" fill="none" xmlns="http://www.w3.org/2000/svg">
<g clip-path="url(#clip0_627_3599)">
<path d="M7.2642 1.17803C8.00558 -0.210222 9.99458 -0.210222 10.736 1.17803L17.5782 13.9783C17.7385 14.2782 17.8184 14.6146 17.8101 14.9546C17.8018 15.2946 17.7055 15.6266 17.5307 15.9184C17.3559 16.2101 17.1085 16.4516 16.8126 16.6192C16.5167 16.7869 16.1824 16.8751 15.8423 16.8752H2.15783C1.81773 16.8751 1.48344 16.7869 1.18755 16.6192C0.891658 16.4516 0.64425 16.2101 0.469436 15.9184C0.294621 15.6266 0.198364 15.2946 0.190043 14.9546C0.181721 14.6146 0.261621 14.2782 0.421954 13.9783L7.2642 1.17803ZM9.24758 1.9734C9.22348 1.92875 9.18775 1.89146 9.14418 1.86546C9.10061 1.83946 9.05082 1.82574 9.00008 1.82574C8.94934 1.82574 8.89955 1.83946 8.85598 1.86546C8.81241 1.89146 8.77668 1.92875 8.75258 1.9734L1.91033 14.7737C1.88741 14.8165 1.87596 14.8645 1.87711 14.9131C1.87825 14.9616 1.89196 15.009 1.91688 15.0507C1.9418 15.0924 1.97709 15.1269 2.01932 15.1509C2.06154 15.1749 2.10926 15.1876 2.15783 15.1877H15.8423C15.8909 15.1876 15.9386 15.1749 15.9808 15.1509C16.0231 15.1269 16.0584 15.0924 16.0833 15.0507C16.1082 15.009 16.1219 14.9616 16.1231 14.9131C16.1242 14.8645 16.1128 14.8165 16.0898 14.7737L9.24758 1.9734ZM9.84383 6.4689V9.2814C9.84383 9.50518 9.75494 9.71979 9.5967 9.87803C9.43847 10.0363 9.22386 10.1252 9.00008 10.1252C8.7763 10.1252 8.56169 10.0363 8.40346 9.87803C8.24522 9.71979 8.15633 9.50518 8.15633 9.2814V6.4689C8.15633 6.24513 8.24522 6.03052 8.40346 5.87228C8.56169 5.71405 8.7763 5.62515 9.00008 5.62515C9.22386 5.62515 9.43847 5.71405 9.5967 5.87228C9.75494 6.03052 9.84383 6.24513 9.84383 6.4689ZM10.1251 12.3752C10.1251 12.6735 10.0066 12.9597 9.79558 13.1706C9.5846 13.3816 9.29845 13.5002 9.00008 13.5002C8.70171 13.5002 8.41556 13.3816 8.20459 13.1706C7.99361 12.9597 7.87508 12.6735 7.87508 12.3752C7.87508 12.0768 7.99361 11.7906 8.20459 11.5797C8.41556 11.3687 8.70171 11.2502 9.00008 11.2502C9.29845 11.2502 9.5846 11.3687 9.79558 11.5797C10.0066 11.7906 10.1251 12.0768 10.1251 12.3752Z" fill="#CB2020"/>
</g>
<defs>
<clipPath id="clip0_627_3599">
<rect width="18" height="18" fill="white"/>
</clipPath>
</defs>
</svg>
