<svg width="16" height="16" viewBox="0 0 16 16" fill="none" xmlns="http://www.w3.org/2000/svg">
<path d="M1.33398 6.97097C1.33398 5.51424 2.51489 4.33333 3.97162 4.33333C4.39367 4.33333 4.77511 4.08181 4.94137 3.69389L5.14782 3.21216C5.46298 2.47679 6.18605 2 6.98611 2H8.00065H9.01519C9.81525 2 10.5383 2.47679 10.8535 3.21216L11.0599 3.69388C11.2262 4.08181 11.6076 4.33333 12.0297 4.33333C13.4864 4.33333 14.6673 5.51424 14.6673 6.97097V10.3333C14.6673 12.1743 13.1749 13.6667 11.334 13.6667H4.66732C2.82637 13.6667 1.33398 12.1743 1.33398 10.3333V6.97097Z" stroke="#1D92ED"/>
<circle cx="2" cy="2" r="2" transform="matrix(-1 0 0 1 10 6.33301)" stroke="#1D92ED"/>
</svg>
