<svg width="24" height="24" viewBox="0 0 24 24" fill="none" xmlns="http://www.w3.org/2000/svg">
<path d="M12.0034 10.8H12.0118M16.1982 10.8H16.2076M7.80762 10.8H7.81707" stroke="#242424" stroke-width="1.83305" stroke-linecap="round" stroke-linejoin="round"/>
<path d="M2 10.5C2 9.72999 2.013 8.97697 2.04 8.24996C2.123 5.8769 2.165 4.68988 3.13002 3.71686C4.09505 2.74483 5.31607 2.69283 7.75613 2.58783C9.17004 2.52847 10.5851 2.49913 12.0002 2.49983C13.4803 2.49983 14.9053 2.52983 16.2443 2.58783C18.6844 2.69283 19.9044 2.74483 20.8704 3.71786C21.8354 4.68988 21.8774 5.8769 21.9604 8.24996C22.0132 9.74952 22.0132 11.2505 21.9604 12.7501C21.8774 15.1231 21.8354 16.3101 20.8704 17.2832C19.9054 18.2552 18.6844 18.3072 16.2443 18.4122C15.5096 18.4435 14.7513 18.4668 13.9693 18.4822C13.2292 18.4962 12.8582 18.5022 12.5322 18.6272C12.2062 18.7522 11.9322 18.9852 11.3842 19.4552L9.20516 21.3252C9.09911 21.4161 8.96921 21.4747 8.83088 21.4939C8.69256 21.5132 8.55161 21.4924 8.42475 21.434C8.2979 21.3755 8.19047 21.282 8.1152 21.1643C8.03994 21.0467 8 20.9099 8.00013 20.7702V18.4222L7.75613 18.4122C5.31607 18.3072 4.09605 18.2552 3.13002 17.2822C2.165 16.3101 2.123 15.1231 2.04 12.7501C2.01348 12.0003 2.00015 11.2502 2 10.5Z" stroke="#242424" stroke-width="2.00004" stroke-linecap="round" stroke-linejoin="round"/>
</svg>
