<svg width="18" height="18" viewBox="0 0 18 18" fill="none" xmlns="http://www.w3.org/2000/svg">
<path d="M7.50098 8.25V12.75" stroke="#CB2020" stroke-width="1.5" stroke-linecap="round" stroke-linejoin="round"/>
<path d="M10.499 8.25V12.75" stroke="#CB2020" stroke-width="1.5" stroke-linecap="round" stroke-linejoin="round"/>
<path d="M14.249 4.5V15C14.249 15.3978 14.091 15.7794 13.8097 16.0607C13.5284 16.342 13.1468 16.5 12.749 16.5H5.24902C4.8512 16.5 4.46967 16.342 4.18836 16.0607C3.90706 15.7794 3.74902 15.3978 3.74902 15V4.5" stroke="#CB2020" stroke-width="1.5" stroke-linecap="round" stroke-linejoin="round"/>
<path d="M2.25 4.5H15.75" stroke="#CB2020" stroke-width="1.5" stroke-linecap="round" stroke-linejoin="round"/>
<path d="M5.99902 4.5V3C5.99902 2.60218 6.15706 2.22064 6.43836 1.93934C6.71967 1.65804 7.1012 1.5 7.49902 1.5H10.499C10.8968 1.5 11.2784 1.65804 11.5597 1.93934C11.841 2.22064 11.999 2.60218 11.999 3V4.5" stroke="#CB2020" stroke-width="1.5" stroke-linecap="round" stroke-linejoin="round"/>
</svg>
