<svg width="30" height="30" viewBox="0 0 30 30" fill="none" xmlns="http://www.w3.org/2000/svg">
<path d="M20.5 6.25C21.6046 6.25 22.5 7.14543 22.5 8.25V21.75C22.5 22.8546 21.6046 23.75 20.5 23.75H9.5C8.39543 23.75 7.5 22.8546 7.5 21.75V8.25C7.5 7.14543 8.39543 6.25 9.5 6.25H20.5ZM21.25 9.5C21.25 8.39543 20.3546 7.5 19.25 7.5H10.75C9.64543 7.5 8.75 8.39543 8.75 9.5V20.5C8.75 21.6046 9.64543 22.5 10.75 22.5H19.25C20.3546 22.5 21.25 21.6046 21.25 20.5V9.5ZM11.25 14.375C11.25 14.7202 10.9702 15 10.625 15C10.2798 15 10 14.7202 10 14.375C10 14.0298 10.2798 13.75 10.625 13.75C10.9702 13.75 11.25 14.0298 11.25 14.375ZM20 14.375C20 14.7202 19.7202 15 19.375 15H13.125C12.7798 15 12.5 14.7202 12.5 14.375C12.5 14.0298 12.7798 13.75 13.125 13.75H19.375C19.7202 13.75 20 14.0298 20 14.375ZM11.25 18.125C11.25 18.4702 10.9702 18.75 10.625 18.75C10.2798 18.75 10 18.4702 10 18.125C10 17.7798 10.2798 17.5 10.625 17.5C10.9702 17.5 11.25 17.7798 11.25 18.125ZM20 18.125C20 18.4702 19.7202 18.75 19.375 18.75H13.125C12.7798 18.75 12.5 18.4702 12.5 18.125C12.5 17.7798 12.7798 17.5 13.125 17.5H19.375C19.7202 17.5 20 17.7798 20 18.125ZM11.25 10.625C11.25 10.9702 10.9702 11.25 10.625 11.25C10.2798 11.25 10 10.9702 10 10.625C10 10.2798 10.2798 10 10.625 10C10.9702 10 11.25 10.2798 11.25 10.625ZM20 10.625C20 10.9702 19.7202 11.25 19.375 11.25H13.125C12.7798 11.25 12.5 10.9702 12.5 10.625C12.5 10.2798 12.7798 10 13.125 10H19.375C19.7202 10 20 10.2798 20 10.625Z" fill="#6C6C6C"/>
</svg>
