<svg width="24" height="24" viewBox="0 0 24 24" fill="none" xmlns="http://www.w3.org/2000/svg">
<path d="M12.0005 14L11.6465 14.354L12.0005 14.707L12.3545 14.354L12.0005 14ZM12.5005 5C12.5005 4.86739 12.4478 4.74021 12.354 4.64645C12.2603 4.55268 12.1331 4.5 12.0005 4.5C11.8679 4.5 11.7407 4.55268 11.6469 4.64645C11.5532 4.74021 11.5005 4.86739 11.5005 5H12.5005ZM6.64648 9.354L11.6465 14.354L12.3545 13.646L7.35448 8.646L6.64648 9.354ZM12.3545 14.354L17.3545 9.354L16.6465 8.646L11.6465 13.646L12.3545 14.354ZM12.5005 14V5H11.5005V14H12.5005Z" fill="#0190FE"/>
<path d="M5 16V17C5 17.5304 5.21071 18.0391 5.58579 18.4142C5.96086 18.7893 6.46957 19 7 19H17C17.5304 19 18.0391 18.7893 18.4142 18.4142C18.7893 18.0391 19 17.5304 19 17V16" stroke="#0190FE"/>
</svg>
