<svg width="15" height="15" viewBox="0 0 15 15" fill="none" xmlns="http://www.w3.org/2000/svg">
<path d="M8.60909 0.680497C9.49736 -0.226487 10.938 -0.226852 11.8269 0.679521L13.8474 2.73909C14.7287 3.63776 14.7378 5.09361 13.8679 6.00374L6.31612 13.9032C5.73224 14.5139 4.93158 14.8582 4.09542 14.8582H1.86104C0.802443 14.858 -0.0426912 13.958 0.00166993 12.8787L0.0973731 10.5526C0.130161 9.76029 0.453412 9.00908 1.00265 8.44808L8.60909 0.680497ZM14.364 13.5311C14.7065 13.5313 14.9841 13.8143 14.9841 14.1639C14.9841 14.5135 14.7065 14.7965 14.364 14.7967H9.34444C9.00184 14.7965 8.72433 14.5135 8.72433 14.1639C8.72433 13.8143 9.00184 13.5312 9.34444 13.5311H14.364ZM1.88058 9.34261C1.55089 9.67928 1.35722 10.1307 1.33761 10.6063L1.2419 12.9315C1.22706 13.2913 1.50906 13.5916 1.86202 13.5916H4.09444C4.59626 13.5917 5.07803 13.385 5.42843 13.0184L10.7712 7.42757L7.26046 3.84847L1.88058 9.34261ZM10.9489 1.57503C10.5449 1.16326 9.8907 1.16377 9.48702 1.576L8.13839 2.95198L11.6384 6.52132L12.9792 5.11897C13.3745 4.70541 13.3706 4.04409 12.9704 3.63558L10.9489 1.57503Z" fill="#505050"/>
</svg>
