<svg width="20" height="20" viewBox="0 0 20 20" fill="none" xmlns="http://www.w3.org/2000/svg">
<path d="M4.16602 4.1665H14.9993C15.6624 4.1665 16.2983 4.4299 16.7671 4.89874C17.236 5.36758 17.4993 6.00346 17.4993 6.6665V14.1665C17.4993 14.8295 17.236 15.4654 16.7671 15.9343C16.2983 16.4031 15.6624 16.6665 14.9993 16.6665H4.16602C3.50297 16.6665 2.86709 16.4031 2.39825 15.9343C1.92941 15.4654 1.66602 14.8295 1.66602 14.1665V6.6665C1.66602 6.00346 1.92941 5.36758 2.39825 4.89874C2.86709 4.4299 3.50297 4.1665 4.16602 4.1665ZM4.16602 4.99984C3.74935 4.99984 3.38268 5.1415 3.09935 5.3915L9.58268 9.58317L16.066 5.3915C15.7827 5.1415 15.416 4.99984 14.9993 4.99984H4.16602ZM9.58268 10.5915L2.60768 6.0665C2.54102 6.24984 2.49935 6.45817 2.49935 6.6665V14.1665C2.49935 14.6085 2.67494 15.0325 2.9875 15.345C3.30006 15.6576 3.72399 15.8332 4.16602 15.8332H14.9993C15.4414 15.8332 15.8653 15.6576 16.1779 15.345C16.4904 15.0325 16.666 14.6085 16.666 14.1665V6.6665C16.666 6.45817 16.6243 6.24984 16.5577 6.0665L9.58268 10.5915Z" fill="#6C6C6C"/>
</svg>
