<svg width="24" height="24" viewBox="0 0 24 24" fill="none" xmlns="http://www.w3.org/2000/svg">
<path d="M12.0005 4.99997L11.6465 4.64597L12.0005 4.29297L12.3545 4.64597L12.0005 4.99997ZM12.5005 14C12.5005 14.1326 12.4478 14.2598 12.354 14.3535C12.2603 14.4473 12.1331 14.5 12.0005 14.5C11.8679 14.5 11.7407 14.4473 11.6469 14.3535C11.5532 14.2598 11.5005 14.1326 11.5005 14H12.5005ZM6.64648 9.64597L11.6465 4.64597L12.3545 5.35397L7.35448 10.354L6.64648 9.64597ZM12.3545 4.64597L17.3545 9.64597L16.6465 10.354L11.6465 5.35397L12.3545 4.64597ZM12.5005 4.99997V14H11.5005V4.99997H12.5005Z" fill="#6C6C6C"/>
<path d="M5 16V17C5 17.5304 5.21071 18.0391 5.58579 18.4142C5.96086 18.7893 6.46957 19 7 19H17C17.5304 19 18.0391 18.7893 18.4142 18.4142C18.7893 18.0391 19 17.5304 19 17V16" stroke="#6C6C6C"/>
</svg>
