<svg width="24" height="24" viewBox="0 0 24 24" fill="none" xmlns="http://www.w3.org/2000/svg">
<path d="M5.14314 19.9643H8.57171V14.25C8.57171 13.9262 8.68142 13.6549 8.90085 13.4363C9.12028 13.2176 9.39152 13.1079 9.71456 13.1071H14.286C14.6098 13.1071 14.8814 13.2169 15.1008 13.4363C15.3203 13.6557 15.4296 13.9269 15.4288 14.25V19.9643H18.8574V9.67857L12.0003 4.53571L5.14314 9.67857V19.9643ZM2.85742 19.9643V9.67857C2.85742 9.31666 2.93856 8.97381 3.10085 8.65C3.26314 8.32619 3.48676 8.05952 3.77171 7.85L10.6288 2.70714C11.0288 2.40238 11.486 2.25 12.0003 2.25C12.5146 2.25 12.9717 2.40238 13.3717 2.70714L20.2288 7.85C20.5146 8.05952 20.7386 8.32619 20.9008 8.65C21.0631 8.97381 21.1439 9.31666 21.1431 9.67857V19.9643C21.1431 20.5929 20.9191 21.1311 20.4711 21.5791C20.0231 22.0271 19.4852 22.2508 18.8574 22.25H14.286C13.9622 22.25 13.6909 22.1403 13.4723 21.9209C13.2536 21.7014 13.1439 21.4302 13.1431 21.1071V15.3929H10.8574V21.1071C10.8574 21.4309 10.7477 21.7026 10.5283 21.922C10.3088 22.1414 10.0376 22.2508 9.71456 22.25H5.14314C4.51456 22.25 3.97666 22.0264 3.52942 21.5791C3.08218 21.1319 2.85818 20.5936 2.85742 19.9643Z" fill="#0190FE"/>
</svg>
