<svg width="32" height="32" viewBox="0 0 32 32" fill="none" xmlns="http://www.w3.org/2000/svg">
<path d="M28.3327 17.3337V11.3337C28.3327 9.56555 27.6303 7.86986 26.3801 6.61961C25.1298 5.36937 23.4341 4.66699 21.666 4.66699H10.3327C8.56457 4.66699 6.86888 5.36937 5.61864 6.61961C4.36839 7.86986 3.66602 9.56555 3.66602 11.3337V20.667C3.66602 21.5425 3.83845 22.4094 4.17349 23.2182C4.50852 24.0271 4.99958 24.762 5.61864 25.381C6.86888 26.6313 8.56457 27.3337 10.3327 27.3337H18.6793" stroke="#505050" stroke-width="2" stroke-linecap="round" stroke-linejoin="round"/>
<path d="M4.01172 22.6672L7.66505 18.4005C8.14484 17.924 8.77453 17.6279 9.44756 17.5623C10.1206 17.4967 10.7956 17.6656 11.3584 18.0405C11.9212 18.4154 12.5962 18.5843 13.2692 18.5187C13.9422 18.4531 14.5719 18.157 15.0517 17.6805L18.1584 14.5738C19.051 13.6781 20.2329 13.1288 21.4931 13.0238C22.7533 12.9187 24.0098 13.2649 25.0384 14.0005L28.3317 16.5472M10.6784 13.5605C10.969 13.5587 11.2565 13.4998 11.5244 13.3869C11.7922 13.2741 12.0353 13.1096 12.2395 12.9028C12.4438 12.696 12.6054 12.4511 12.715 12.1819C12.8246 11.9126 12.8801 11.6245 12.8784 11.3338C12.8766 11.0432 12.8177 10.7557 12.7048 10.4878C12.592 10.22 12.4275 9.97696 12.2207 9.77267C12.0139 9.56838 11.7689 9.40682 11.4997 9.29721C11.2305 9.18759 10.9424 9.13208 10.6517 9.13383C10.0647 9.13737 9.50314 9.37395 9.09056 9.79153C8.67798 10.2091 8.44818 10.7735 8.45172 11.3605C8.45526 11.9475 8.69184 12.5091 9.10942 12.9217C9.527 13.3342 10.0914 13.564 10.6784 13.5605Z" stroke="#505050" stroke-width="2" stroke-linecap="round" stroke-linejoin="round"/>
<path d="M24.9414 20V26.6667" stroke="#505050" stroke-width="2" stroke-miterlimit="10" stroke-linecap="round"/>
<path d="M27.9994 22.8072L25.3768 20.1845C25.3198 20.1273 25.252 20.0819 25.1774 20.0509C25.1029 20.0199 25.0229 20.0039 24.9421 20.0039C24.8613 20.0039 24.7813 20.0199 24.7067 20.0509C24.6322 20.0819 24.5644 20.1273 24.5074 20.1845L21.8848 22.8072" stroke="#505050" stroke-width="2" stroke-linecap="round" stroke-linejoin="round"/>
</svg>
