<svg width="26" height="26" viewBox="0 0 26 26" fill="none" xmlns="http://www.w3.org/2000/svg">
<path d="M12.8567 12.857L22.2071 7.5002M12.8567 12.857V23.5707M12.8567 12.857L8.1809 10.1792M22.2071 7.5002C21.8826 6.94318 21.4173 6.4814 20.8577 6.16129L17.7792 4.3973M22.2071 7.5002C22.5256 8.04689 22.7017 8.67581 22.7017 9.33021V16.3838C22.7013 17.0278 22.5305 17.6602 22.2067 18.2167C21.8828 18.7733 21.4174 19.2343 20.8577 19.5528L14.7006 23.0807C14.1392 23.4021 13.5035 23.5711 12.8567 23.5707M12.8567 23.5707C12.2098 23.5711 11.5741 23.4021 11.0128 23.0807L4.85562 19.5528C3.71477 18.8995 3.01172 17.6926 3.01172 16.3838V9.33021C3.01155 8.68732 3.1818 8.05587 3.50513 7.5002M8.1809 10.1792L3.50513 7.5002M8.1809 10.1792L17.7792 4.3973M17.7792 4.3973L14.7006 2.63331C14.1394 2.31144 13.5037 2.14209 12.8567 2.14209C12.2097 2.14209 11.574 2.31144 11.0128 2.63331L4.85562 6.16129C4.29568 6.48124 3.82989 6.94304 3.50513 7.5002" stroke="#43A047" stroke-width="2.31646" stroke-linejoin="round"/>
</svg>
