<svg width="70" height="80" viewBox="0 0 70 80" fill="none" xmlns="http://www.w3.org/2000/svg">
<path d="M28.0007 51.9998L48.3638 40.3338M28.0007 51.9998V75.3317M28.0007 51.9998L17.8179 46.1681M48.3638 40.3338C47.6572 39.1208 46.6437 38.1151 45.4252 37.418L38.7208 33.5764M48.3638 40.3338C49.0574 41.5244 49.4408 42.894 49.4408 44.3192V59.6804C49.4401 61.0828 49.0682 62.4599 48.3629 63.672C47.6576 64.8842 46.6441 65.888 45.4252 66.5816L32.0163 74.2647C30.7938 74.9647 29.4094 75.3326 28.0007 75.3317M28.0007 75.3317C26.592 75.3326 25.2076 74.9647 23.9851 74.2647L10.5762 66.5816C8.09163 65.159 6.56055 62.5307 6.56055 59.6804V44.3192C6.56018 42.9191 6.93095 41.5439 7.63508 40.3338M17.8179 46.1681L7.63508 40.3338M17.8179 46.1681L38.7208 33.5764M38.7208 33.5764L32.0163 29.7348C30.7941 29.0339 29.4097 28.665 28.0007 28.665C26.5917 28.665 25.2073 29.0339 23.9851 29.7348L10.5762 37.418C9.35673 38.1147 8.34234 39.1204 7.63508 40.3338" stroke="#43A047" stroke-opacity="0.2" stroke-width="2" stroke-linejoin="round"/>
<path d="M55.4994 14.4998L66.0446 8.45853M55.4994 14.4998V26.5824M55.4994 14.4998L50.2262 11.4798M66.0446 8.45853C65.6787 7.83034 65.1539 7.30955 64.5228 6.94853L61.0509 4.95915M66.0446 8.45853C66.4038 9.07507 66.6024 9.78435 66.6024 10.5224V18.4773C66.602 19.2035 66.4094 19.9167 66.0441 20.5444C65.6789 21.1721 65.154 21.6919 64.5228 22.0511L57.5789 26.0299C56.9459 26.3924 56.2289 26.5829 55.4994 26.5824M55.4994 26.5824C54.7699 26.5829 54.053 26.3924 53.4199 26.0299L46.476 22.0511C45.1894 21.3144 44.3965 19.9533 44.3965 18.4773V10.5224C44.3963 9.79733 44.5883 9.0852 44.9529 8.45853M50.2262 11.4798L44.9529 8.45853M50.2262 11.4798L61.0509 4.95915M61.0509 4.95915L57.5789 2.96976C56.946 2.60677 56.2291 2.41577 55.4994 2.41577C54.7698 2.41577 54.0528 2.60677 53.4199 2.96976L46.476 6.94853C45.8445 7.30937 45.3192 7.83017 44.9529 8.45853" stroke="#43A047" stroke-opacity="0.2" stroke-width="2" stroke-linejoin="round"/>
<path d="M27.4992 12.4998L36.5899 7.29179M27.4992 12.4998V22.9159M27.4992 12.4998L22.9533 9.89637M36.5899 7.29179C36.2745 6.75025 35.822 6.30129 35.278 5.99007L32.285 4.27508M36.5899 7.29179C36.8996 7.82329 37.0707 8.43474 37.0707 9.07097V15.9287C37.0704 16.5547 36.9043 17.1695 36.5895 17.7106C36.2746 18.2518 35.8222 18.6999 35.278 19.0096L29.2919 22.4395C28.7462 22.752 28.1281 22.9162 27.4992 22.9159M27.4992 22.9159C26.8703 22.9162 26.2523 22.752 25.7065 22.4395L19.7204 19.0096C18.6113 18.3745 17.9277 17.2011 17.9277 15.9287V9.07097C17.9276 8.44593 18.0931 7.83203 18.4074 7.29179M22.9533 9.89637L18.4074 7.29179M22.9533 9.89637L32.285 4.27508M32.285 4.27508L29.2919 2.5601C28.7463 2.24717 28.1282 2.08252 27.4992 2.08252C26.8702 2.08252 26.2522 2.24717 25.7065 2.5601L19.7204 5.99007C19.176 6.30114 18.7232 6.75011 18.4074 7.29179" stroke="#43A047" stroke-opacity="0.2" stroke-width="2" stroke-linejoin="round"/>
</svg>
