<svg width="71" height="85" viewBox="0 0 71 85" fill="none" xmlns="http://www.w3.org/2000/svg">
<path d="M42.5001 42.4999L73.4084 24.7926M42.5001 42.4999V77.9144M42.5001 42.4999L27.0441 33.6481M73.4084 24.7926C72.3359 22.9513 70.7976 21.4249 68.9481 20.3667L58.7717 14.5358M73.4084 24.7926C74.4613 26.5997 75.0432 28.6786 75.0432 30.8418V54.1579C75.042 56.2865 74.4775 58.3769 73.407 60.2167C72.3365 62.0565 70.7981 63.5802 68.9481 64.633L48.5952 76.2949C46.7397 77.3574 44.6383 77.9157 42.5001 77.9144M42.5001 77.9144C40.3619 77.9157 38.2606 77.3574 36.405 76.2949L16.0522 64.633C12.281 62.4737 9.95703 58.4843 9.95703 54.1579V30.8418C9.95648 28.7167 10.5192 26.6294 11.588 24.7926M27.0441 33.6481L11.588 24.7926M27.0441 33.6481L58.7717 14.5358M58.7717 14.5358L48.5952 8.70482C46.7401 7.64086 44.6387 7.08105 42.5001 7.08105C40.3615 7.08105 38.2602 7.64086 36.405 8.70482L16.0522 20.3667C14.2012 21.4244 12.6615 22.9508 11.588 24.7926" stroke="#43A047" stroke-opacity="0.2" stroke-width="2" stroke-linejoin="round"/>
</svg>
