<svg width="30" height="30" viewBox="0 0 30 30" fill="none" xmlns="http://www.w3.org/2000/svg">
<path d="M6.66602 15C6.66602 15.8766 6.8164 16.718 7.09278 17.5M7.09278 17.5H14.166M7.09278 17.5C8.12237 20.413 10.9005 22.5 14.166 22.5C12.8792 22.5 11.8194 19.5833 11.6813 15.8334M15.8441 12.5H22.9173M22.9173 12.5C21.8877 9.58702 19.1096 7.5 15.8441 7.5C17.1782 7.5 18.2682 10.635 18.3403 14.5834M22.9173 12.5C23.1496 13.1572 23.2928 13.8565 23.3327 14.5834" stroke="#6C6C6C" stroke-width="1.25" stroke-linecap="round" stroke-linejoin="round"/>
<path d="M6.66602 9.41478C6.66602 8.49947 6.66602 8.04182 6.82217 7.6869C6.98777 7.31052 7.27319 7.008 7.62832 6.83249C7.96319 6.66699 8.395 6.66699 9.25861 6.66699H9.99935C11.5707 6.66699 12.3564 6.66699 12.8445 7.18437C13.3327 7.70174 13.3327 8.53445 13.3327 10.1999V12.0824C13.3327 12.8089 13.3327 13.1721 13.1126 13.2969C12.8926 13.4217 12.6074 13.2203 12.0371 12.8173L11.9502 12.7559C11.5334 12.4614 11.325 12.3141 11.0888 12.2384C10.8526 12.1626 10.6021 12.1626 10.1012 12.1626H9.25861C8.395 12.1626 7.96319 12.1626 7.62832 11.9971C7.27319 11.8216 6.98777 11.519 6.82217 11.1427C6.66602 10.7877 6.66602 10.3301 6.66602 9.41478Z" stroke="#6C6C6C" stroke-width="1.25"/>
<path d="M23.3327 19.4147C23.3327 18.4995 23.3327 18.0418 23.1765 17.6869C23.0109 17.3105 22.7255 17.008 22.3703 16.8325C22.0355 16.667 21.6037 16.667 20.7401 16.667H19.9993C18.428 16.667 17.6423 16.667 17.1542 17.1844C16.666 17.7017 16.666 18.5344 16.666 20.1998V22.0824C16.666 22.8089 16.666 23.1721 16.8861 23.2969C17.1061 23.4217 17.3913 23.2202 17.9616 22.8173L18.0485 22.7559C18.4653 22.4614 18.6737 22.3142 18.9098 22.2383C19.1461 22.1626 19.3965 22.1626 19.8975 22.1626H20.7401C21.6037 22.1626 22.0355 22.1626 22.3703 21.9971C22.7255 21.8216 23.0109 21.5191 23.1765 21.1427C23.3327 20.7877 23.3327 20.3301 23.3327 19.4147Z" stroke="#6C6C6C" stroke-width="1.25"/>
</svg>
