<svg width="26" height="26" viewBox="0 0 26 26" fill="none" xmlns="http://www.w3.org/2000/svg">
<path d="M20.0417 11.9168C20.4219 10.8151 20.5032 9.4945 20.5833 7.89333V6.50016H18.1393C15.0735 6.50016 13.1387 7.37116 12.0293 8.74916M5.69292 11.9255C5.54076 11.2093 5.44835 10.4817 5.41667 9.75016V8.66683H7.31792C8.37958 8.66683 9.269 8.80116 10.0035 9.046M8.66667 8.66683L9.75 4.3335L14.0833 7.04183M14.0833 11.9168V11.3752C14.0833 10.6569 13.798 9.96799 13.2901 9.46008C12.7822 8.95217 12.0933 8.66683 11.375 8.66683C10.6567 8.66683 9.96783 8.95217 9.45992 9.46008C8.95201 9.96799 8.66667 10.6569 8.66667 11.3752V11.9168M4.33333 11.9168H21.6667C21.954 11.9168 22.2295 12.031 22.4327 12.2341C22.6359 12.4373 22.75 12.7128 22.75 13.0002V13.5418C22.75 15.1668 20.0233 19.5792 18.4167 20.5835V21.6668C18.4167 21.9541 18.3025 22.2297 18.0994 22.4329C17.8962 22.636 17.6207 22.7502 17.3333 22.7502H8.66667C8.37935 22.7502 8.1038 22.636 7.90063 22.4329C7.69747 22.2297 7.58333 21.9541 7.58333 21.6668V20.5835C5.75575 19.4417 3.25 15.1668 3.25 13.5418V13.0002C3.25 12.7128 3.36414 12.4373 3.5673 12.2341C3.77047 12.031 4.04602 11.9168 4.33333 11.9168Z" stroke="#FF8F0F" stroke-width="2.16667" stroke-linecap="round" stroke-linejoin="round"/>
</svg>
