<svg width="20" height="20" viewBox="0 0 20 20" fill="none" xmlns="http://www.w3.org/2000/svg">
<path d="M12.0771 12.9165H12.0846M7.91797 12.9165H7.92547" stroke="#6C6C6C" stroke-width="0.833333" stroke-linecap="round" stroke-linejoin="round"/>
<path d="M3.55732 15.7042C3.74482 17.0959 4.89732 18.1867 6.30065 18.2509C7.48065 18.305 8.67982 18.3334 10.0007 18.3334C11.3215 18.3334 12.5207 18.305 13.7007 18.25C15.104 18.1867 16.2565 17.0959 16.444 15.7042C16.5665 14.7959 16.6673 13.865 16.6673 12.9167C16.6673 11.9684 16.5665 11.0375 16.444 10.1292C16.2565 8.73755 15.104 7.64671 13.7007 7.58255C12.4681 7.52622 11.2345 7.49871 10.0007 7.50005C8.67982 7.50005 7.48065 7.52838 6.30065 7.58338C4.89732 7.64671 3.74482 8.73755 3.55732 10.1292C3.43398 11.0375 3.33398 11.9684 3.33398 12.9167C3.33398 13.865 3.43482 14.7959 3.55732 15.7042Z" stroke="#6C6C6C" stroke-width="0.833333"/>
<path d="M6.25 7.49984V5.4165C6.25 4.42194 6.64509 3.46811 7.34835 2.76485C8.05161 2.06159 9.00544 1.6665 10 1.6665C10.9946 1.6665 11.9484 2.06159 12.6516 2.76485C13.3549 3.46811 13.75 4.42194 13.75 5.4165V7.49984" stroke="#6C6C6C" stroke-width="0.833333" stroke-linecap="round" stroke-linejoin="round"/>
</svg>
