<svg width="18" height="18" viewBox="0 0 18 18" fill="none" xmlns="http://www.w3.org/2000/svg">
<path d="M9 2.25H3.75C3.35218 2.25 2.97064 2.40804 2.68934 2.68934C2.40804 2.97064 2.25 3.35218 2.25 3.75V14.25C2.25 14.6478 2.40804 15.0294 2.68934 15.3107C2.97064 15.592 3.35218 15.75 3.75 15.75H14.25C14.6478 15.75 15.0294 15.592 15.3107 15.3107C15.592 15.0294 15.75 14.6478 15.75 14.25V9" stroke="#FF8F0F" stroke-width="1.5" stroke-linecap="round" stroke-linejoin="round"/>
<path d="M13.7823 1.96843C14.0807 1.67006 14.4853 1.50244 14.9073 1.50244C15.3293 1.50244 15.7339 1.67006 16.0323 1.96843C16.3307 2.2668 16.4983 2.67147 16.4983 3.09343C16.4983 3.51539 16.3307 3.92006 16.0323 4.21843L9.27255 10.9789C9.09446 11.1569 8.87445 11.2871 8.6328 11.3577L6.47805 11.9877C6.41351 12.0065 6.3451 12.0076 6.27998 11.991C6.21486 11.9743 6.15542 11.9404 6.10788 11.8928C6.06035 11.8453 6.02646 11.7859 6.00978 11.7208C5.9931 11.6556 5.99422 11.5872 6.01305 11.5227L6.64305 9.36793C6.71394 9.12647 6.84445 8.90673 7.02255 8.72893L13.7823 1.96843Z" stroke="#FF8F0F" stroke-width="1.5" stroke-linecap="round" stroke-linejoin="round"/>
</svg>
