<svg width="20" height="20" viewBox="0 0 20 20" fill="none" xmlns="http://www.w3.org/2000/svg">
<g clip-path="url(#clip0_626_12448)">
<path d="M8.07177 1.30873C8.89552 -0.23377 11.1055 -0.23377 11.9293 1.30873L19.5318 15.5312C19.7099 15.8645 19.7987 16.2382 19.7895 16.616C19.7802 16.9938 19.6733 17.3627 19.479 17.6869C19.2848 18.011 19.0099 18.2793 18.6811 18.4656C18.3523 18.6519 17.9809 18.7499 17.603 18.75H2.39802C2.02013 18.7499 1.6487 18.6519 1.31993 18.4656C0.991165 18.2793 0.716267 18.011 0.522029 17.6869C0.327791 17.3627 0.220838 16.9938 0.211592 16.616C0.202347 16.2382 0.291124 15.8645 0.469272 15.5312L8.07177 1.30873ZM10.2755 2.19248C10.2487 2.14287 10.209 2.10143 10.1606 2.07254C10.1122 2.04366 10.0569 2.02841 10.0005 2.02841C9.94415 2.02841 9.88882 2.04366 9.84041 2.07254C9.792 2.10143 9.7523 2.14287 9.72552 2.19248L2.12302 16.415C2.09755 16.4626 2.08483 16.5159 2.08611 16.5699C2.08738 16.6238 2.10261 16.6765 2.1303 16.7228C2.15799 16.7691 2.1972 16.8075 2.24412 16.8342C2.29104 16.8608 2.34406 16.8749 2.39802 16.875H17.603C17.657 16.8749 17.71 16.8608 17.7569 16.8342C17.8038 16.8075 17.8431 16.7691 17.8707 16.7228C17.8984 16.6765 17.9137 16.6238 17.9149 16.5699C17.9162 16.5159 17.9035 16.4626 17.878 16.415L10.2755 2.19248ZM10.938 7.18748V10.3125C10.938 10.5611 10.8393 10.7996 10.6634 10.9754C10.4876 11.1512 10.2492 11.25 10.0005 11.25C9.75188 11.25 9.51343 11.1512 9.33761 10.9754C9.1618 10.7996 9.06302 10.5611 9.06302 10.3125V7.18748C9.06302 6.93884 9.1618 6.70038 9.33761 6.52457C9.51343 6.34875 9.75188 6.24998 10.0005 6.24998C10.2492 6.24998 10.4876 6.34875 10.6634 6.52457C10.8393 6.70038 10.938 6.93884 10.938 7.18748ZM11.2505 13.75C11.2505 14.0815 11.1188 14.3994 10.8844 14.6339C10.65 14.8683 10.332 15 10.0005 15C9.669 15 9.35106 14.8683 9.11664 14.6339C8.88222 14.3994 8.75052 14.0815 8.75052 13.75C8.75052 13.4185 8.88222 13.1005 9.11664 12.8661C9.35106 12.6317 9.669 12.5 10.0005 12.5C10.332 12.5 10.65 12.6317 10.8844 12.8661C11.1188 13.1005 11.2505 13.4185 11.2505 13.75Z" fill="#FF8F0F"/>
</g>
<defs>
<clipPath id="clip0_626_12448">
<rect width="20" height="20" fill="white"/>
</clipPath>
</defs>
</svg>
