<svg width="20" height="20" viewBox="0 0 20 20" fill="none" xmlns="http://www.w3.org/2000/svg">
<path d="M9.99976 3.74984C9.44722 3.74984 8.91732 3.96933 8.52662 4.36003C8.13592 4.75073 7.91642 5.28064 7.91642 5.83317C7.91642 6.3857 8.13592 6.91561 8.52662 7.30631C8.91732 7.69701 9.44722 7.9165 9.99976 7.9165C10.5523 7.9165 11.0822 7.69701 11.4729 7.30631C11.8636 6.91561 12.0831 6.3857 12.0831 5.83317C12.0831 5.28064 11.8636 4.75073 11.4729 4.36003C11.0822 3.96933 10.5523 3.74984 9.99976 3.74984ZM7.08309 5.83317C7.08309 5.45015 7.15853 5.07088 7.30511 4.71701C7.45168 4.36314 7.66652 4.04161 7.93736 3.77078C8.2082 3.49994 8.52973 3.2851 8.8836 3.13852C9.23746 2.99195 9.61673 2.9165 9.99976 2.9165C10.3828 2.9165 10.762 2.99195 11.1159 3.13852C11.4698 3.2851 11.7913 3.49994 12.0621 3.77078C12.333 4.04161 12.5478 4.36314 12.6944 4.71701C12.841 5.07088 12.9164 5.45015 12.9164 5.83317C12.9164 6.60672 12.6091 7.34858 12.0621 7.89557C11.5152 8.44255 10.7733 8.74984 9.99976 8.74984C9.22621 8.74984 8.48434 8.44255 7.93736 7.89557C7.39038 7.34858 7.08309 6.60672 7.08309 5.83317ZM7.80809 10.4548C7.61364 10.5048 7.42114 10.5609 7.23059 10.6232L6.43142 10.8857C6.10498 10.992 5.81015 11.1779 5.57358 11.4267C5.33701 11.6755 5.16615 11.9793 5.07642 12.3107L4.74392 14.7107C4.66892 15.2498 4.95475 15.694 5.40725 15.8023C6.29642 16.0148 7.78309 16.2498 9.99892 16.2498C12.2156 16.2498 13.7031 16.0148 14.5923 15.8023C15.0448 15.694 15.3298 15.2498 15.2556 14.7107L14.9223 12.3107C14.8325 11.9793 14.6617 11.6755 14.4251 11.4267C14.1885 11.1779 13.8937 10.992 13.5673 10.8857L12.7681 10.6232C12.5775 10.5604 12.3853 10.5043 12.1914 10.4548C12.0409 10.573 11.8815 10.6794 11.7148 10.7732C11.1926 11.0731 10.6019 11.2333 9.99976 11.2382C9.28309 11.2382 8.69142 11.0023 8.28476 10.7732C8.11769 10.6794 7.95889 10.573 7.80809 10.4548ZM8.04476 9.54234L8.20642 9.7015L8.21059 9.70567L8.23059 9.724C8.25003 9.74178 8.28087 9.76734 8.32309 9.80067C8.40642 9.86734 8.53226 9.95734 8.69309 10.0473C9.01559 10.229 9.46559 10.4048 9.99892 10.4048C10.5323 10.4048 10.9823 10.2298 11.3048 10.0473C11.4687 9.95472 11.6233 9.84643 11.7664 9.724L11.7873 9.70484L11.7906 9.70234L11.9523 9.54234L12.1756 9.594C12.4623 9.65956 12.7461 9.73873 13.0273 9.8315L13.8273 10.094C14.291 10.2446 14.7091 10.5099 15.0427 10.8654C15.3764 11.2209 15.6147 11.655 15.7356 12.1273L15.7414 12.1498L16.0798 14.5965C16.2023 15.4798 15.7298 16.3882 14.7848 16.6132C13.8264 16.8415 12.2739 17.0832 9.99892 17.0832C7.72392 17.0832 6.17142 16.8415 5.21309 16.6132C4.26809 16.3882 3.79559 15.4798 3.91726 14.5965L4.25642 12.1498L4.26225 12.1273C4.38314 11.655 4.62148 11.2209 4.95513 10.8654C5.28877 10.5099 5.70688 10.2446 6.17059 10.094L6.97059 9.8315C7.2517 9.73928 7.53559 9.66011 7.82226 9.594L8.04476 9.54234Z" fill="#6C6C6C"/>
</svg>
