<svg width="20" height="20" viewBox="0 0 20 20" fill="none" xmlns="http://www.w3.org/2000/svg">
<path fill-rule="evenodd" clip-rule="evenodd" d="M9.99784 0.44873C11.7194 0.44873 13.207 1.42175 13.9556 2.84247C15.1311 2.9069 16.2373 3.41924 17.0467 4.27417C17.8561 5.1291 18.3072 6.26164 18.3073 7.43894L18.293 7.80069C18.2331 8.55135 17.9896 9.27579 17.5841 9.91032C17.1786 10.5448 16.6234 11.07 15.9673 11.4397V17.4616C15.9673 18.0157 15.7471 18.5472 15.3553 18.939C14.9635 19.3308 14.4321 19.5509 13.878 19.5509H6.1177C5.56358 19.5509 5.03216 19.3308 4.64034 18.939C4.24852 18.5472 4.0284 18.0157 4.0284 17.4616V11.4671C3.36006 11.101 2.79323 10.5744 2.37892 9.93485C1.96461 9.29526 1.71583 8.56269 1.65495 7.80307L1.64062 7.43894C1.64098 6.25377 2.0984 5.1144 2.91767 4.258C3.73693 3.4016 4.85492 2.89415 6.03891 2.84128C6.41845 2.11985 6.98777 1.51574 7.68544 1.0941C8.38311 0.672473 9.18266 0.449325 9.99784 0.44873ZM5.81923 17.4616C5.81923 17.6264 5.95295 17.7601 6.1177 17.7601H13.878C13.9571 17.7601 14.033 17.7286 14.089 17.6727C14.145 17.6167 14.1764 17.5408 14.1764 17.4616V15.3723H5.81923V17.4616ZM9.99784 2.23956C9.44005 2.23994 8.89622 2.41394 8.44182 2.73741C7.98741 3.06089 7.64497 3.51779 7.46202 4.04472L7.2304 4.7133L6.5284 4.64166L6.24306 4.62734C5.49747 4.62765 4.78251 4.92398 4.25531 5.45118C3.7281 5.97839 3.43177 6.69335 3.43146 7.43894L3.43981 7.661C3.52577 8.75938 4.24807 9.68225 5.24258 10.0607L5.81923 10.2816V13.5815H14.1764V10.2744L14.7411 10.0488C15.327 9.81771 15.8182 9.39647 16.136 8.8527C16.4537 8.30893 16.5795 7.67417 16.4931 7.05033C16.4068 6.42649 16.1133 5.84975 15.6598 5.41272C15.2064 4.9757 14.6192 4.70372 13.9926 4.64047L13.706 4.62734C13.6249 4.62734 13.5413 4.63131 13.4553 4.63927L12.7605 4.69897L12.5313 4.04233C12.348 3.51624 12.0058 3.06012 11.5519 2.73713C11.098 2.41414 10.5549 2.24026 9.99784 2.23956Z" fill="#FF8F0F"/>
</svg>
