<svg width="72" height="70" viewBox="0 0 72 70" fill="none" xmlns="http://www.w3.org/2000/svg">
<path d="M37 44C37.702 41.966 37.852 39.528 38 36.572V34H33.488C27.828 34 24.256 35.608 22.208 38.152M10.51 44.016C10.2291 42.6938 10.0585 41.3505 10 40V38H13.51C15.47 38 17.112 38.248 18.468 38.7M16 38L18 30L26 35M26 44V43C26 41.6739 25.4732 40.4021 24.5355 39.4645C23.5979 38.5268 22.3261 38 21 38C19.6739 38 18.4021 38.5268 17.4645 39.4645C16.5268 40.4021 16 41.6739 16 43V44M8 44H40C40.5304 44 41.0391 44.2107 41.4142 44.5858C41.7893 44.9609 42 45.4696 42 46V47C42 50 36.966 58.146 34 60V62C34 62.5304 33.7893 63.0391 33.4142 63.4142C33.0391 63.7893 32.5304 64 32 64H16C15.4696 64 14.9609 63.7893 14.5858 63.4142C14.2107 63.0391 14 62.5304 14 62V60C10.626 57.892 6 50 6 47V46C6 45.4696 6.21071 44.9609 6.58579 44.5858C6.96086 44.2107 7.46957 44 8 44Z" stroke="#D53DD8" stroke-opacity="0.3" stroke-width="2.08333" stroke-linecap="round" stroke-linejoin="round"/>
<path d="M64.8958 26.2082C65.3492 24.8945 65.4461 23.32 65.5417 21.4109V19.7498H62.6277C58.9723 19.7498 56.6653 20.7883 55.3427 22.4313M47.7877 26.2185C47.6063 25.3646 47.4961 24.497 47.4583 23.6248V22.3332H49.7252C50.991 22.3332 52.0515 22.4933 52.9273 22.7853M51.3333 22.3332L52.625 17.1665L57.7917 20.3957M57.7917 26.2082V25.5623C57.7917 24.7059 57.4515 23.8846 56.8459 23.279C56.2403 22.6734 55.4189 22.3332 54.5625 22.3332C53.7061 22.3332 52.8847 22.6734 52.2791 23.279C51.6735 23.8846 51.3333 24.7059 51.3333 25.5623V26.2082M46.1667 26.2082H66.8333C67.1759 26.2082 67.5044 26.3443 67.7467 26.5865C67.9889 26.8287 68.125 27.1573 68.125 27.4998V28.1457C68.125 30.0832 64.8739 35.3441 62.9583 36.5415V37.8332C62.9583 38.1757 62.8222 38.5043 62.58 38.7465C62.3378 38.9888 62.0092 39.1248 61.6667 39.1248H51.3333C50.9908 39.1248 50.6622 38.9888 50.42 38.7465C50.1778 38.5043 50.0417 38.1757 50.0417 37.8332V36.5415C47.8626 35.1801 44.875 30.0832 44.875 28.1457V27.4998C44.875 27.1573 45.0111 26.8287 45.2533 26.5865C45.4956 26.3443 45.8241 26.2082 46.1667 26.2082Z" stroke="#D53DD8" stroke-opacity="0.3" stroke-width="2.08333" stroke-linecap="round" stroke-linejoin="round"/>
<path d="M30.2708 11.4582C30.6365 10.3988 30.7146 9.129 30.7917 7.58942V6.24984H28.4417C25.4938 6.24984 23.6333 7.08734 22.5667 8.41234M16.474 11.4665C16.3276 10.7778 16.2388 10.0782 16.2083 9.37484V8.33317H18.0365C19.0573 8.33317 19.9125 8.46234 20.6187 8.69775M19.3333 8.33317L20.375 4.1665L24.5417 6.77067M24.5417 11.4582V10.9373C24.5417 10.2467 24.2673 9.58429 23.7789 9.09591C23.2905 8.60754 22.6282 8.33317 21.9375 8.33317C21.2468 8.33317 20.5845 8.60754 20.0961 9.09591C19.6077 9.58429 19.3333 10.2467 19.3333 10.9373V11.4582M15.1667 11.4582H31.8333C32.1096 11.4582 32.3746 11.5679 32.5699 11.7633C32.7653 11.9586 32.875 12.2236 32.875 12.4998V13.0207C32.875 14.5832 30.2531 18.8259 28.7083 19.7915V20.8332C28.7083 21.1094 28.5986 21.3744 28.4032 21.5697C28.2079 21.7651 27.9429 21.8748 27.6667 21.8748H19.3333C19.0571 21.8748 18.7921 21.7651 18.5968 21.5697C18.4014 21.3744 18.2917 21.1094 18.2917 20.8332V19.7915C16.5344 18.6936 14.125 14.5832 14.125 13.0207V12.4998C14.125 12.2236 14.2347 11.9586 14.4301 11.7633C14.6254 11.5679 14.8904 11.4582 15.1667 11.4582Z" stroke="#D53DD8" stroke-opacity="0.3" stroke-width="2.08333" stroke-linecap="round" stroke-linejoin="round"/>
</svg>
