<svg width="30" height="61" viewBox="0 0 30 61" fill="none" xmlns="http://www.w3.org/2000/svg">
<path d="M47.0208 27.9582C47.913 25.3733 48.1036 22.275 48.2917 18.5184V15.2498H42.5577C35.3648 15.2498 30.8253 17.2933 28.2227 20.5263M13.3565 27.9785C12.9995 26.2982 12.7827 24.5911 12.7083 22.8748V20.3332H17.169C19.6598 20.3332 21.7465 20.6483 23.4698 21.2228M20.3333 20.3332L22.875 10.1665L33.0417 16.5207M33.0417 27.9582V26.6873C33.0417 25.0021 32.3722 23.3859 31.1806 22.1943C29.9889 21.0026 28.3727 20.3332 26.6875 20.3332C25.0023 20.3332 23.3861 21.0026 22.1944 22.1943C21.0028 23.3859 20.3333 25.0021 20.3333 26.6873V27.9582M10.1667 27.9582H50.8333C51.5074 27.9582 52.1539 28.226 52.6306 28.7026C53.1072 29.1793 53.375 29.8257 53.375 30.4998V31.7707C53.375 35.5832 46.9776 45.9354 43.2083 48.2915V50.8332C43.2083 51.5073 42.9406 52.1537 42.4639 52.6304C41.9872 53.1071 41.3408 53.3748 40.6667 53.3748H20.3333C19.6592 53.3748 19.0128 53.1071 18.5361 52.6304C18.0594 52.1537 17.7917 51.5073 17.7917 50.8332V48.2915C13.5039 45.6126 7.625 35.5832 7.625 31.7707V30.4998C7.625 29.8257 7.89278 29.1793 8.36944 28.7026C8.84609 28.226 9.49257 27.9582 10.1667 27.9582Z" stroke="#D53DD8" stroke-opacity="0.3" stroke-width="2.08333" stroke-linecap="round" stroke-linejoin="round"/>
</svg>
