<svg width="25" height="25" viewBox="0 0 25 25" fill="none" xmlns="http://www.w3.org/2000/svg">
<path d="M19.2708 11.4582C19.6365 10.3988 19.7146 9.129 19.7917 7.58942V6.24984H17.4417C14.4938 6.24984 12.6333 7.08734 11.5667 8.41234M5.47396 11.4665C5.32765 10.7778 5.2388 10.0782 5.20833 9.37484V8.33317H7.03646C8.05729 8.33317 8.9125 8.46234 9.61875 8.69775M8.33333 8.33317L9.375 4.1665L13.5417 6.77067M13.5417 11.4582V10.9373C13.5417 10.2467 13.2673 9.58429 12.7789 9.09591C12.2905 8.60754 11.6282 8.33317 10.9375 8.33317C10.2468 8.33317 9.58445 8.60754 9.09608 9.09591C8.6077 9.58429 8.33333 10.2467 8.33333 10.9373V11.4582M4.16667 11.4582H20.8333C21.1096 11.4582 21.3746 11.5679 21.5699 11.7633C21.7653 11.9586 21.875 12.2236 21.875 12.4998V13.0207C21.875 14.5832 19.2531 18.8259 17.7083 19.7915V20.8332C17.7083 21.1094 17.5986 21.3744 17.4032 21.5697C17.2079 21.7651 16.9429 21.8748 16.6667 21.8748H8.33333C8.05707 21.8748 7.79211 21.7651 7.59676 21.5697C7.40141 21.3744 7.29167 21.1094 7.29167 20.8332V19.7915C5.53437 18.6936 3.125 14.5832 3.125 13.0207V12.4998C3.125 12.2236 3.23475 11.9586 3.4301 11.7633C3.62545 11.5679 3.8904 11.4582 4.16667 11.4582Z" stroke="#D53DD8" stroke-width="2.08333" stroke-linecap="round" stroke-linejoin="round"/>
</svg>
