<svg width="30" height="30" viewBox="0 0 30 30" fill="none" xmlns="http://www.w3.org/2000/svg">
<g clip-path="url(#clip0_665_4139)">
<path d="M25 20V21.25H18.6914L20.752 23.3105L19.873 24.1895L16.3086 20.625L19.873 17.0605L20.752 17.9395L18.6914 20H25ZM17.6172 15.7715L16.7578 16.6797C16.1784 16.1328 15.5241 15.7161 14.7949 15.4297C14.0658 15.1432 13.3008 15 12.5 15C11.9271 15 11.3737 15.0749 10.8398 15.2246C10.306 15.3743 9.80794 15.5827 9.3457 15.8496C8.88346 16.1165 8.46354 16.4421 8.08594 16.8262C7.70833 17.2103 7.38281 17.6335 7.10938 18.0957C6.83594 18.5579 6.62435 19.056 6.47461 19.5898C6.32487 20.1237 6.25 20.6771 6.25 21.25H5C5 20.4883 5.11393 19.7428 5.3418 19.0137C5.56966 18.2845 5.89844 17.6107 6.32812 16.9922C6.75781 16.3737 7.26888 15.8236 7.86133 15.3418C8.45378 14.86 9.11458 14.4922 9.84375 14.2383C9.47917 14.0039 9.15365 13.7337 8.86719 13.4277C8.58073 13.1217 8.33333 12.7865 8.125 12.4219C7.91667 12.0573 7.76367 11.6732 7.66602 11.2695C7.56836 10.8659 7.51302 10.4427 7.5 10C7.5 9.3099 7.63021 8.66211 7.89062 8.05664C8.15104 7.45117 8.50586 6.92057 8.95508 6.46484C9.4043 6.00911 9.9349 5.65104 10.5469 5.39062C11.1589 5.13021 11.8099 5 12.5 5C13.1901 5 13.8379 5.13021 14.4434 5.39062C15.0488 5.65104 15.5794 6.00586 16.0352 6.45508C16.4909 6.9043 16.849 7.4349 17.1094 8.04688C17.3698 8.65885 17.5 9.3099 17.5 10C17.5 10.8919 17.2949 11.6992 16.8848 12.4219C16.4746 13.1445 15.8984 13.75 15.1562 14.2383C15.612 14.4076 16.0449 14.6224 16.4551 14.8828C16.8652 15.1432 17.2526 15.4395 17.6172 15.7715ZM8.75 10C8.75 10.5208 8.84766 11.0059 9.04297 11.4551C9.23828 11.9043 9.50521 12.3014 9.84375 12.6465C10.1823 12.9915 10.5794 13.2617 11.0352 13.457C11.4909 13.6523 11.9792 13.75 12.5 13.75C13.0143 13.75 13.4993 13.6523 13.9551 13.457C14.4108 13.2617 14.8079 12.9948 15.1465 12.6562C15.485 12.3177 15.7552 11.9206 15.957 11.4648C16.1589 11.0091 16.2565 10.5208 16.25 10C16.25 9.48568 16.1523 9.00065 15.957 8.54492C15.7617 8.08919 15.4948 7.69206 15.1562 7.35352C14.8177 7.01497 14.4173 6.74479 13.9551 6.54297C13.4928 6.34115 13.0078 6.24349 12.5 6.25C11.9792 6.25 11.4941 6.34766 11.0449 6.54297C10.5957 6.73828 10.1986 7.00521 9.85352 7.34375C9.50846 7.68229 9.23828 8.08268 9.04297 8.54492C8.84766 9.00716 8.75 9.49219 8.75 10Z" fill="#6C6C6C"/>
</g>
<defs>
<clipPath id="clip0_665_4139">
<rect width="20" height="20" fill="white" transform="translate(5 5)"/>
</clipPath>
</defs>
</svg>
