<svg width="18" height="18" viewBox="0 0 18 18" fill="none" xmlns="http://www.w3.org/2000/svg">
<path d="M0.707148 5.45035L0.790012 5.40339C3.48902 4.09452 9.34355 1.5168 15.5274 0.457785L15.5295 0.457095C15.6793 0.430547 15.8338 0.441074 15.979 0.486788C16.124 0.532502 16.2561 0.612036 16.3636 0.719498C16.4713 0.827135 16.5513 0.959623 16.597 1.10482C16.6427 1.2499 16.6525 1.40388 16.626 1.55366V1.55642C15.567 7.74027 12.9888 13.5944 11.6797 16.2931C11.4508 16.7653 10.822 16.7527 10.6115 16.2786C9.7428 14.3188 9.00001 12.2486 8.66831 11.2888C8.56984 10.9998 8.58703 10.6835 8.71527 10.4063L8.71596 10.4056L9.94787 7.7222L10.4471 6.63599L9.36092 7.13525L6.6782 8.36785L6.6775 8.36854C6.40023 8.49679 6.0841 8.51274 5.795 8.41412C4.83519 8.08241 2.76465 7.34121 0.805204 6.47234C0.360125 6.27498 0.321026 5.70861 0.707148 5.45035Z" stroke="#505050" stroke-width="0.885575"/>
</svg>
