<svg width="30" height="30" viewBox="0 0 30 30" fill="none" xmlns="http://www.w3.org/2000/svg">
<circle cx="2.5" cy="2.5" r="2.5" transform="matrix(-1 0 0 1 17.5 12.5)" stroke="#6C6C6C" stroke-width="1.25"/>
<path d="M15 6.66699L15 6.04199H15V6.66699ZM18.749 9.11523L18.4365 9.6565L18.4365 9.6565L18.749 9.11523ZM21.666 15L21.041 14.9999V15H21.666ZM18.749 20.8857L18.4365 20.3445L18.4365 20.3445L18.749 20.8857ZM15 23.334V23.959H15L15 23.334ZM11.249 20.8857L11.5615 20.3445L11.5615 20.3445L11.249 20.8857ZM8.33301 15H8.95801L8.95801 14.9999L8.33301 15ZM11.249 9.11523L11.5615 9.65654L11.5615 9.6565L11.249 9.11523ZM12.4316 7.51406L13.0407 7.65454L12.4316 7.51406ZM7.42291 13.0723L7.02524 13.5544L7.42291 13.0723ZM9.42957 20.6182L9.28638 20.0098L9.42957 20.6182ZM12.9443 23.0772L13.0983 22.4715L12.9443 23.0772ZM17.0524 23.0781L17.2062 23.6839L17.0524 23.0781ZM21.3246 20.4218L20.8502 20.0148L21.3246 20.4218ZM20.5686 20.6191L20.7121 20.0108L20.5686 20.6191ZM22.8674 12.2559L23.4576 12.0502L22.8674 12.2559ZM22.5761 13.0723L22.9738 13.5544L22.5761 13.0723ZM7.42268 16.9269L7.82025 17.4091L7.42268 16.9269ZM21.3257 9.57844L20.8513 9.98532L21.3257 9.57844ZM9.42873 9.38205L9.28525 9.99035L9.42873 9.38205ZM22.5764 16.9269L22.9739 16.4446L22.5764 16.9269ZM22.8676 17.7429L22.2774 17.5373L22.8676 17.7429ZM17.5654 7.51343L16.9564 7.65395L17.5654 7.51343ZM15 6.66699L15 7.29199C15.6559 7.29203 16.2919 7.37401 16.8988 7.52779L17.0523 6.92195L17.2058 6.3161C16.4996 6.13713 15.7605 6.04203 15 6.04199L15 6.66699ZM17.5654 7.51343L16.9564 7.65395C17.1439 8.46652 17.655 9.20528 18.4365 9.6565L18.749 9.11523L19.0615 8.57397C18.5938 8.3039 18.2875 7.86312 18.1744 7.3729L17.5654 7.51343ZM18.749 9.11523L18.4365 9.6565C19.1543 10.0709 19.968 10.1656 20.7132 9.98941L20.5694 9.38118L20.4256 8.77295C19.9762 8.8792 19.4908 8.82182 19.0615 8.57397L18.749 9.11523ZM21.3257 9.57844L20.8513 9.98532C21.4707 10.7075 21.9578 11.5452 22.2772 12.4616L22.8674 12.2559L23.4576 12.0502C23.086 10.9841 22.5196 10.0104 21.8001 9.17155L21.3257 9.57844ZM22.5761 13.0723L22.1785 12.5901C21.4854 13.1618 21.0411 14.0288 21.041 14.9999L21.666 15L22.291 15.0001C22.2911 14.4184 22.5558 13.8993 22.9738 13.5544L22.5761 13.0723ZM21.666 15H21.041C21.041 15.9715 21.4858 16.8378 22.1788 17.4091L22.5764 16.9269L22.9739 16.4446C22.5557 16.0998 22.291 15.5813 22.291 15H21.666ZM22.8676 17.7429L22.2774 17.5373C21.9579 18.4542 21.4703 19.2921 20.8502 20.0148L21.3246 20.4218L21.7989 20.8287C22.5189 19.9895 23.0861 19.0155 23.4578 17.9486L22.8676 17.7429ZM20.5686 20.6191L20.7121 20.0108C19.967 19.8351 19.1538 19.9304 18.4365 20.3445L18.749 20.8857L19.0615 21.427C19.4908 21.1791 19.9761 21.1215 20.4251 21.2274L20.5686 20.6191ZM18.749 20.8857L18.4365 20.3445C17.6554 20.7956 17.1442 21.5336 16.9565 22.346L17.5655 22.4867L18.1744 22.6274C18.2876 22.1376 18.5938 21.6971 19.0616 21.427L18.749 20.8857ZM17.0524 23.0781L16.8987 22.4723C16.2916 22.6264 15.6557 22.709 15 22.709L15 23.334L15 23.959C15.761 23.9589 16.5002 23.8631 17.2062 23.6839L17.0524 23.0781ZM15 23.334V22.709C14.3434 22.709 13.7064 22.6261 13.0983 22.4715L12.9443 23.0772L12.7903 23.6829C13.4973 23.8627 14.2378 23.959 15 23.959V23.334ZM12.4316 22.486L13.0406 22.3454C12.8531 21.5335 12.3428 20.7955 11.5615 20.3445L11.249 20.8857L10.9365 21.427C11.4039 21.6969 11.7095 22.1368 11.8226 22.6266L12.4316 22.486ZM11.249 20.8857L11.5615 20.3445C10.8447 19.9306 10.0317 19.8344 9.28638 20.0098L9.42957 20.6182L9.57276 21.2266C10.0215 21.121 10.5069 21.179 10.9365 21.427L11.249 20.8857ZM8.67347 20.4207L9.14789 20.0138C8.5283 19.2913 8.04095 18.4538 7.72167 17.5373L7.13146 17.743L6.54126 17.9486C6.91279 19.015 7.47954 19.9886 8.19905 20.8275L8.67347 20.4207ZM7.42268 16.9269L7.82025 17.4091C8.51324 16.8378 8.95801 15.9715 8.95801 15H8.33301H7.70801C7.70801 15.5813 7.44335 16.0998 7.02512 16.4446L7.42268 16.9269ZM8.33301 15L8.95801 14.9999C8.95788 14.0288 8.51369 13.1618 7.82058 12.5901L7.42291 13.0723L7.02524 13.5544C7.44327 13.8992 7.70793 14.4184 7.70801 15.0001L8.33301 15ZM7.13162 12.2558L7.7218 12.4615C8.04104 11.5456 8.52789 10.7083 9.14687 9.98633L8.67238 9.57953L8.19789 9.17273C7.47893 10.0113 6.91281 10.9846 6.54144 12.0501L7.13162 12.2558ZM9.42873 9.38205L9.28525 9.99035C10.0307 10.1662 10.8442 10.0705 11.5615 9.65654L11.249 9.11523L10.9366 8.57393C10.507 8.8219 10.0213 8.87967 9.57221 8.77374L9.42873 9.38205ZM11.249 9.11523L11.5615 9.6565C12.3431 9.20528 12.8533 8.46662 13.0407 7.65454L12.4316 7.51406L11.8226 7.37357C11.7096 7.86378 11.4038 8.30416 10.9365 8.57397L11.249 9.11523ZM12.9444 6.92286L13.0982 7.52865C13.706 7.37436 14.3431 7.29199 15 7.29199V6.66699V6.04199C14.2382 6.04199 13.4978 6.13756 12.7906 6.31708L12.9444 6.92286ZM12.4316 7.51406L13.0407 7.65454C13.0535 7.59866 13.0754 7.55925 13.0924 7.53859C13.107 7.52085 13.1096 7.52574 13.0982 7.52865L12.9444 6.92286L12.7906 6.31708C12.2155 6.46306 11.9181 6.95972 11.8226 7.37357L12.4316 7.51406ZM7.42291 13.0723L7.82058 12.5901C7.77001 12.5484 7.74063 12.5033 7.72884 12.4731C7.71893 12.4478 7.72622 12.4489 7.7218 12.4615L7.13162 12.2558L6.54144 12.0501C6.32039 12.6844 6.66288 13.2556 7.02524 13.5544L7.42291 13.0723ZM9.42957 20.6182L9.28638 20.0098C9.23062 20.023 9.18564 20.0208 9.1596 20.0147C9.1372 20.0095 9.1403 20.0049 9.14789 20.0138L8.67347 20.4207L8.19905 20.8275C8.58445 21.2769 9.15997 21.3238 9.57276 21.2266L9.42957 20.6182ZM12.9443 23.0772L13.0983 22.4715C13.1097 22.4744 13.107 22.4792 13.0924 22.4614C13.0754 22.4408 13.0535 22.4013 13.0406 22.3454L12.4316 22.486L11.8226 22.6266C11.9181 23.0404 12.2155 23.5368 12.7903 23.6829L12.9443 23.0772ZM17.5655 22.4867L16.9565 22.346C16.9436 22.402 16.9216 22.4415 16.9046 22.4623C16.8899 22.4801 16.8872 22.4752 16.8987 22.4723L17.0524 23.0781L17.2062 23.6839C17.7815 23.5379 18.0788 23.0411 18.1744 22.6274L17.5655 22.4867ZM21.3246 20.4218L20.8502 20.0148C20.8578 20.0059 20.8609 20.0105 20.8386 20.0157C20.8126 20.0217 20.7677 20.0239 20.7121 20.0108L20.5686 20.6191L20.4251 21.2274C20.838 21.3248 21.4135 21.278 21.7989 20.8287L21.3246 20.4218ZM22.8674 12.2559L22.2772 12.4616C22.2728 12.4489 22.2801 12.4478 22.2702 12.4732C22.2584 12.5033 22.229 12.5484 22.1785 12.5901L22.5761 13.0723L22.9738 13.5544C23.3362 13.2556 23.6786 12.6844 23.4576 12.0502L22.8674 12.2559ZM7.13146 17.743L7.72167 17.5373C7.72608 17.55 7.71881 17.5511 7.72869 17.5258C7.74044 17.4958 7.76976 17.4508 7.82025 17.4091L7.42268 16.9269L7.02512 16.4446C6.66265 16.7434 6.32035 17.3145 6.54126 17.9486L7.13146 17.743ZM20.5694 9.38118L20.7132 9.98941C20.7688 9.97626 20.8137 9.97842 20.8397 9.98447C20.862 9.98967 20.8589 9.99418 20.8513 9.98532L21.3257 9.57844L21.8001 9.17155C21.4146 8.72203 20.8387 8.67527 20.4256 8.77295L20.5694 9.38118ZM8.67238 9.57953L9.14687 9.98633C9.13926 9.9952 9.13613 9.99067 9.15851 9.98545C9.18455 9.97938 9.22951 9.97721 9.28525 9.99035L9.42873 9.38205L9.57221 8.77374C9.15926 8.67634 8.5834 8.72307 8.19789 9.17273L8.67238 9.57953ZM22.5764 16.9269L22.1788 17.4091C22.2293 17.4507 22.2586 17.4957 22.2703 17.5258C22.2802 17.5511 22.2729 17.55 22.2774 17.5373L22.8676 17.7429L23.4578 17.9486C23.6787 17.3145 23.3364 16.7435 22.9739 16.4446L22.5764 16.9269ZM17.0523 6.92195L16.8988 7.52779C16.8873 7.52488 16.8899 7.51996 16.9045 7.53775C16.9215 7.55845 16.9435 7.59795 16.9564 7.65395L17.5654 7.51343L18.1744 7.3729C18.0789 6.95904 17.7814 6.46196 17.2058 6.3161L17.0523 6.92195Z" fill="#6C6C6C"/>
</svg>
