<svg width="10" height="10" viewBox="0 0 10 10" fill="none" xmlns="http://www.w3.org/2000/svg">
<path d="M0 5.00065H3.33333M3.33333 5.00065C3.33333 4.55862 3.50893 4.1347 3.82149 3.82214C4.13405 3.50958 4.55797 3.33398 5 3.33398C5.44203 3.33398 5.86595 3.50958 6.17851 3.82214C6.49107 4.1347 6.66667 4.55862 6.66667 5.00065M3.33333 5.00065C3.33333 5.44268 3.50893 5.8666 3.82149 6.17916C4.13405 6.49172 4.55797 6.66732 5 6.66732C5.44203 6.66732 5.86595 6.49172 6.17851 6.17916C6.49107 5.8666 6.66667 5.44268 6.66667 5.00065M6.66667 5.00065H10" stroke="#10B981" stroke-width="1.25"/>
</svg>
