<svg width="175" height="175" viewBox="0 0 175 175" fill="none" xmlns="http://www.w3.org/2000/svg">
<rect width="175" height="175" rx="87.5" fill="#E6F3FE" fill-opacity="0.6"/>
<circle cx="87.5009" cy="87.5" r="59.6338" fill="#B0DAFA" fill-opacity="0.4"/>
<path d="M88.0586 64.6509C94.2663 64.6509 100.22 67.1169 104.609 71.5064C108.999 75.8959 111.465 81.8494 111.465 88.0571C111.465 94.2649 108.999 100.218 104.609 104.608C100.22 108.997 94.2663 111.463 88.0586 111.463C81.8509 111.463 75.8974 108.997 71.5079 104.608C67.1184 100.218 64.6523 94.2649 64.6523 88.0571C64.6523 81.8494 67.1184 75.8959 71.5079 71.5064C75.8974 67.1169 81.8509 64.6509 88.0586 64.6509ZM85.1433 92.6757L79.9448 87.472C79.5686 87.0951 79.0581 86.8831 78.5255 86.8826C77.993 86.8821 77.4821 87.0932 77.1052 87.4694C76.7283 87.8456 76.5163 88.3561 76.5158 88.8886C76.5153 89.4211 76.7264 89.932 77.1026 90.3089L83.7274 96.939C83.9133 97.1258 84.1344 97.2741 84.3778 97.3753C84.6212 97.4765 84.8823 97.5286 85.1459 97.5286C85.4095 97.5286 85.6705 97.4765 85.9139 97.3753C86.1574 97.2741 86.3784 97.1258 86.5644 96.939L100.274 83.2244C100.465 83.0391 100.617 82.8177 100.721 82.5732C100.825 82.3286 100.88 82.0657 100.882 81.7998C100.884 81.5339 100.833 81.2702 100.732 81.0242C100.631 80.7781 100.483 80.5546 100.295 80.3665C100.107 80.1785 99.883 80.0297 99.637 79.9288C99.3909 79.828 99.1272 79.777 98.8613 79.779C98.5954 79.7809 98.3325 79.8357 98.088 79.9401C97.8434 80.0446 97.622 80.1966 97.4368 80.3874L85.1433 92.6757Z" fill="#0088F0"/>
</svg>
