<svg width="24" height="24" viewBox="0 0 24 24" fill="none" xmlns="http://www.w3.org/2000/svg">
<path d="M14 17.9999V5.99988C14 5.46944 13.7893 4.96074 13.4142 4.58566C13.0391 4.21059 12.5304 3.99988 12 3.99988H4C3.46957 3.99988 2.96086 4.21059 2.58579 4.58566C2.21071 4.96074 2 5.46944 2 5.99988V16.9999C2 17.2651 2.10536 17.5194 2.29289 17.707C2.48043 17.8945 2.73478 17.9999 3 17.9999H5" stroke="#242424" stroke-width="1.5" stroke-linecap="round" stroke-linejoin="round"/>
<path d="M15 18H9" stroke="#242424" stroke-width="2" stroke-linecap="round" stroke-linejoin="round"/>
<path d="M19 18.0001H21C21.2652 18.0001 21.5196 17.8948 21.7071 17.7072C21.8946 17.5197 22 17.2653 22 17.0001V13.3501C21.9996 13.1232 21.922 12.9031 21.78 12.7261L18.3 8.37612C18.2065 8.259 18.0878 8.1644 17.9528 8.09932C17.8178 8.03424 17.6699 8.00034 17.52 8.00012H14" stroke="#242424" stroke-width="1.5" stroke-linecap="round" stroke-linejoin="round"/>
<path d="M17 19.9999C18.1046 19.9999 19 19.1044 19 17.9999C19 16.8953 18.1046 15.9999 17 15.9999C15.8954 15.9999 15 16.8953 15 17.9999C15 19.1044 15.8954 19.9999 17 19.9999Z" stroke="#242424" stroke-width="1.5" stroke-linecap="round" stroke-linejoin="round"/>
<path d="M7 19.9999C8.10457 19.9999 9 19.1044 9 17.9999C9 16.8953 8.10457 15.9999 7 15.9999C5.89543 15.9999 5 16.8953 5 17.9999C5 19.1044 5.89543 19.9999 7 19.9999Z" stroke="#242424" stroke-width="1.5" stroke-linecap="round" stroke-linejoin="round"/>
</svg>
