<svg width="20" height="20" viewBox="0 0 20 20" fill="none" xmlns="http://www.w3.org/2000/svg">
<path d="M11.667 14.9997V4.99967C11.667 4.55765 11.4914 4.13372 11.1788 3.82116C10.8663 3.5086 10.4424 3.33301 10.0003 3.33301H3.33366C2.89163 3.33301 2.46771 3.5086 2.15515 3.82116C1.84259 4.13372 1.66699 4.55765 1.66699 4.99967V14.1663C1.66699 14.3874 1.75479 14.5993 1.91107 14.7556C2.06735 14.9119 2.27931 14.9997 2.50033 14.9997H4.16699" stroke="#43A047" stroke-width="1.25" stroke-linecap="round" stroke-linejoin="round"/>
<path d="M12.5 15H7.5" stroke="#43A047" stroke-width="1.66667" stroke-linecap="round" stroke-linejoin="round"/>
<path d="M15.8337 15.0003H17.5003C17.7213 15.0003 17.9333 14.9125 18.0896 14.7562C18.2459 14.6 18.3337 14.388 18.3337 14.167V11.1253C18.3333 10.9362 18.2687 10.7528 18.1503 10.6053L15.2503 6.98033C15.1724 6.88273 15.0735 6.80389 14.961 6.74966C14.8485 6.69542 14.7252 6.66717 14.6003 6.66699H11.667" stroke="#43A047" stroke-width="1.25" stroke-linecap="round" stroke-linejoin="round"/>
<path d="M14.1667 16.6663C15.0871 16.6663 15.8333 15.9201 15.8333 14.9997C15.8333 14.0792 15.0871 13.333 14.1667 13.333C13.2462 13.333 12.5 14.0792 12.5 14.9997C12.5 15.9201 13.2462 16.6663 14.1667 16.6663Z" stroke="#43A047" stroke-width="1.25" stroke-linecap="round" stroke-linejoin="round"/>
<path d="M5.83366 16.6663C6.75413 16.6663 7.50033 15.9201 7.50033 14.9997C7.50033 14.0792 6.75413 13.333 5.83366 13.333C4.91318 13.333 4.16699 14.0792 4.16699 14.9997C4.16699 15.9201 4.91318 16.6663 5.83366 16.6663Z" stroke="#43A047" stroke-width="1.25" stroke-linecap="round" stroke-linejoin="round"/>
</svg>
